<?xml version="1.0" standalone="no"?>
<!DOCTYPE svg PUBLIC "-//W3C//DTD SVG 20010904//EN"
 "http://www.w3.org/TR/2001/REC-SVG-20010904/DTD/svg10.dtd">
<svg version="1.0" xmlns="http://www.w3.org/2000/svg"
 width="300.000000pt" height="400.000000pt" viewBox="0 0 300.000000 400.000000"
 preserveAspectRatio="xMidYMid meet">
<metadata>
Created by potrace 1.16, written by Peter Selinger 2001-2019
</metadata>
<g transform="translate(0.000000,400.000000) scale(0.046875,-0.093897)"
fill="#000000" stroke="none">
<path d="M2482 4023 c-69 -34 -109 -158 -90 -281 5 -30 24 -100 43 -156 18
-56 36 -114 39 -131 3 -16 12 -62 21 -101 11 -53 13 -79 5 -99 -9 -25 -7 -31
34 -69 68 -64 116 -104 132 -110 28 -11 32 -50 18 -160 -16 -124 -9 -196 31
-303 21 -54 27 -106 15 -120 -2 -2 -3 -7 -4 -12 0 -5 -16 -31 -35 -58 -61 -85
-92 -153 -148 -322 -30 -91 -66 -185 -79 -208 -27 -47 -30 -57 -11 -47 7 4 9
3 4 -2 -5 -5 -12 -9 -16 -9 -17 0 -94 -102 -128 -168 -32 -65 -35 -77 -29
-129 5 -53 -4 -82 -19 -58 -3 5 -25 14 -48 21 -23 6 -60 19 -82 29 -22 10 -69
27 -105 38 -100 31 -181 60 -225 81 -91 43 -213 62 -400 64 -172 2 -265 -6
-327 -28 -24 -8 -51 -15 -60 -15 -10 0 -36 -10 -58 -21 l-41 -22 -23 22 c-17
16 -35 21 -77 21 -30 0 -60 -5 -67 -12 -9 -9 -21 -3 -52 27 -33 32 -40 36 -46
21 -4 -10 -13 -15 -24 -11 -13 4 -17 1 -16 -12 0 -9 -10 -22 -23 -29 -22 -11
-22 -12 -5 -23 16 -9 16 -12 5 -20 -11 -7 -10 -11 7 -20 11 -6 23 -24 27 -40
7 -32 34 -49 47 -29 5 9 8 9 8 1 0 -6 9 -14 20 -18 18 -6 19 -8 5 -35 -9 -18
-11 -31 -5 -35 6 -3 10 -41 10 -84 0 -121 42 -224 150 -371 108 -145 266 -283
379 -329 25 -11 29 -16 20 -28 -10 -11 -14 -11 -20 -1 -6 9 -9 5 -9 -11 0 -13
3 -22 6 -18 4 3 24 -3 46 -14 21 -11 43 -17 48 -14 5 3 11 1 14 -4 3 -5 29
-14 56 -21 28 -7 56 -21 64 -31 11 -17 14 -17 19 -5 5 13 11 14 39 2 18 -7 42
-17 53 -21 21 -8 57 -14 88 -16 9 0 15 -4 12 -9 -3 -5 6 -7 20 -4 14 2 25 0
25 -5 0 -6 9 -8 20 -6 11 2 20 -1 20 -7 0 -6 10 -8 25 -4 17 4 25 2 25 -6 0
-9 3 -8 10 2 5 8 10 10 10 4 0 -16 31 -27 43 -15 11 11 47 2 47 -13 0 -6 5 -4
10 4 5 8 10 10 10 4 0 -6 13 -9 30 -6 18 2 30 0 30 -7 0 -6 7 -8 15 -5 8 4 15
1 15 -5 0 -6 13 -9 30 -7 17 2 30 -1 30 -7 0 -5 8 -3 17 4 13 11 15 11 9 1 -5
-9 -3 -12 5 -11 27 5 171 -14 160 -21 -7 -3 12 -6 41 -6 29 1 100 -2 158 -6
58 -5 179 -11 270 -14 91 -3 183 -7 205 -9 92 -8 334 -5 384 5 30 5 56 8 59 6
2 -3 23 3 45 13 23 10 67 24 97 31 30 7 64 19 75 25 11 7 49 15 85 18 68 6
120 21 120 35 0 10 102 41 143 44 25 2 62 28 41 28 -20 0 23 20 44 20 12 0 22
6 22 13 0 9 3 8 9 -2 12 -18 46 1 46 26 0 10 7 19 15 19 34 3 79 17 75 23 -5
10 32 41 39 34 3 -4 6 1 6 10 0 17 12 19 112 21 14 1 30 4 34 9 4 4 14 7 21 7
18 0 41 23 91 92 23 31 46 60 52 63 6 4 8 15 5 26 -5 14 0 21 15 27 l21 8 -21
19 c-18 16 -18 20 -6 34 12 13 13 26 6 56 -5 23 -5 44 0 49 5 5 6 15 3 22 -3
8 0 14 6 14 24 0 9 18 -19 24 -26 5 -30 9 -24 30 3 13 1 27 -5 30 -10 7 -16
-12 -12 -41 1 -7 -5 -13 -14 -13 -16 0 -20 15 -6 24 5 4 8 14 7 24 -2 12 -14
18 -44 20 -27 2 -42 8 -42 16 0 8 -8 20 -17 27 -16 13 -17 12 -4 -4 11 -14 11
-21 3 -29 -9 -9 -12 -8 -12 5 0 10 -7 20 -15 23 -8 4 -12 11 -9 16 4 5 -2 26
-12 46 -11 21 -20 38 -21 40 0 2 -19 -6 -42 -17 -52 -27 -59 -26 -71 4 -6 16
-18 26 -32 27 -53 3 -88 16 -88 32 0 7 18 39 41 71 23 33 47 79 55 104 18 60
18 148 -1 201 -8 23 -20 70 -26 106 -13 72 -59 157 -121 220 -40 42 -129 94
-160 94 -12 0 -21 14 -29 43 -27 100 -42 143 -60 168 -10 15 -19 30 -19 34 0
4 -9 23 -21 41 l-21 34 -20 -22 -20 -23 20 30 c39 61 78 187 88 285 7 60 26
87 66 93 121 19 177 49 208 113 36 73 131 211 186 269 96 103 154 217 154 306
0 55 -15 86 -52 110 -70 44 -262 2 -410 -89 -35 -21 -88 -54 -118 -72 -30 -19
-77 -47 -105 -64 -59 -37 -99 -40 -140 -11 -141 99 -310 135 -469 100 -42 -9
-84 -14 -94 -9 -9 4 -20 6 -24 6 -5 -1 -8 2 -8 7 0 5 -17 35 -38 67 -21 33
-64 98 -95 145 -75 115 -178 218 -257 258 -71 35 -100 38 -148 14z m252 -344
c8 -9 7 -10 -2 -4 -11 6 -11 3 -1 -13 7 -12 16 -19 20 -16 12 7 22 -17 11 -28
-7 -7 -17 -3 -31 11 -21 21 -38 13 -27 -14 3 -10 17 -12 50 -9 24 3 47 1 50
-5 3 -5 -4 -7 -16 -4 -20 4 -21 3 -5 -7 9 -6 26 -9 36 -5 11 3 23 0 27 -6 4
-7 3 -9 -3 -6 -6 4 -13 1 -16 -7 -3 -8 -15 -12 -29 -9 -15 3 -32 -5 -50 -22
-15 -14 -35 -25 -45 -25 -15 0 -16 -2 -3 -10 13 -8 12 -10 -3 -10 -23 0 -51
26 -37 35 7 4 7 13 0 26 -6 11 -8 24 -5 29 8 13 -6 61 -16 54 -5 -3 -9 0 -9 5
0 6 7 11 16 11 10 0 14 5 10 16 -4 10 -2 13 6 8 7 -5 9 -2 5 9 -5 12 0 15 25
11 17 -2 36 -9 42 -15z m1322 -286 c12 -7 24 -10 28 -8 3 3 4 2 1 -2 -3 -3 0
-12 6 -20 8 -9 8 -13 1 -13 -6 0 -9 -7 -6 -15 4 -8 1 -15 -6 -15 -6 0 -9 -4
-5 -9 3 -5 0 -13 -6 -17 -8 -4 -7 -9 2 -15 11 -7 10 -9 -3 -9 -10 0 -18 -4
-18 -10 0 -5 -10 -9 -22 -7 -21 2 -118 104 -118 124 0 26 106 38 146 16z
m-751 -964 c3 -15 13 -30 21 -33 24 -9 16 -34 -23 -71 -32 -29 -36 -36 -23
-45 8 -5 20 -8 27 -5 21 7 37 -23 25 -49 -17 -39 12 -106 46 -106 8 0 12 -8
10 -17 -2 -10 -11 -17 -21 -17 -9 1 -17 -2 -17 -6 0 -5 -11 -7 -25 -6 -13 2
-22 -1 -19 -5 3 -5 0 -9 -5 -9 -6 0 -11 4 -11 9 0 11 -39 3 -57 -12 -9 -6 -13
-6 -13 1 0 5 -9 8 -20 5 -11 -3 -40 4 -65 16 -24 11 -55 21 -67 21 -42 0 -58
3 -58 13 0 5 -9 20 -20 34 -11 14 -20 23 -20 19 0 -4 -11 5 -25 20 -31 33 -32
45 -2 43 62 -6 70 -1 64 35 -4 24 -1 39 9 47 11 9 11 15 3 25 -6 8 -9 19 -6
26 2 7 6 18 7 23 9 30 108 117 154 134 l50 18 38 -40 c20 -22 40 -53 43 -68z
m-275 -401 c19 -12 78 -36 130 -53 l95 -32 3 30 c3 24 6 27 14 16 7 -10 8 -5
4 18 -3 18 -2 34 2 37 4 2 8 -3 8 -12 0 -9 3 -57 7 -107 l7 -90 -19 40 c-17
36 -20 37 -20 14 -1 -14 5 -34 13 -44 12 -16 16 -17 30 -6 9 8 19 32 23 53 l6
40 45 -5 c25 -3 51 -11 56 -19 6 -8 13 -15 16 -15 3 0 15 -3 28 -7 18 -6 21
-11 12 -21 -9 -11 -4 -15 25 -21 29 -5 33 -9 24 -20 -9 -11 -8 -14 2 -14 8 0
5 -6 -7 -14 -10 -8 -16 -18 -11 -22 8 -9 -41 -44 -62 -44 -17 0 -57 -42 -66
-69 -11 -35 38 -109 61 -91 9 8 13 -1 16 -40 1 -27 0 -50 -4 -50 -5 0 -8 10
-9 23 0 22 0 22 -9 1 -10 -26 -62 -40 -52 -15 5 14 3 14 -11 2 -9 -7 -27 -11
-38 -8 -12 3 -27 0 -34 -6 -18 -18 -1 -55 30 -63 31 -8 32 -27 2 -51 -22 -17
-45 -79 -26 -67 5 3 9 -2 9 -11 0 -9 5 -13 10 -10 6 4 8 11 5 16 -4 5 -1 9 4
9 6 0 11 -3 11 -6 0 -14 -24 -50 -43 -65 -18 -15 -22 -15 -36 -2 -12 13 -16
13 -20 2 -3 -8 -12 -15 -20 -17 -12 -3 -12 0 -2 12 11 13 8 15 -23 11 -25 -4
-38 0 -44 11 -7 12 -11 13 -17 5 -5 -9 -10 -9 -22 0 -11 10 -16 10 -22 1 -8
-13 -110 -8 -121 6 -6 8 -19 11 -58 14 -30 3 -62 26 -62 44 0 7 -6 15 -12 18
-7 3 -4 4 7 3 12 -1 19 3 17 11 -1 8 2 11 10 6 6 -4 24 -8 40 -9 22 -1 26 1
17 12 -9 10 -8 13 4 13 10 0 15 7 12 20 -3 16 2 20 23 21 17 1 21 3 10 6 -10
2 -18 11 -18 18 0 8 -4 17 -10 20 -6 3 -8 -2 -4 -12 4 -16 4 -16 -8 1 -31 45
-79 84 -98 79 -12 -3 -22 1 -26 11 -3 9 -11 13 -17 9 -5 -3 -7 -1 -3 5 3 6 1
16 -6 24 -7 7 -15 26 -16 42 -3 23 -1 28 12 23 8 -3 18 -1 22 5 5 7 11 3 16
-12 9 -23 9 -23 33 10 14 19 26 43 26 54 4 74 3 102 -6 108 -6 5 -5 8 3 8 6 0
12 7 12 15 0 8 -4 15 -10 15 -5 0 -10 9 -10 20 0 11 -5 20 -11 20 -5 0 -8 4
-5 9 4 5 0 12 -6 15 -7 4 -4 5 7 3 15 -3 21 1 21 14 0 11 -5 19 -11 19 -5 1 5
9 24 19 32 17 33 19 13 25 -20 7 -20 8 -4 24 15 15 58 39 72 41 3 1 21 -9 40
-21z"/>
</g>
</svg>
