<?xml version="1.0" standalone="no"?>
<!DOCTYPE svg PUBLIC "-//W3C//DTD SVG 20010904//EN"
 "http://www.w3.org/TR/2001/REC-SVG-20010904/DTD/svg10.dtd">
<svg version="1.0" xmlns="http://www.w3.org/2000/svg"
 width="64.000000pt" height="64.000000pt" viewBox="0 0 64.000000 64.000000"
 preserveAspectRatio="xMidYMid meet">
<metadata>
Created by potrace 1.16, written by Peter Selinger 2001-2019
</metadata>
<g transform="translate(0.000000,64.000000) scale(0.100000,-0.100000)"
fill="#000000" stroke="none">
<path d="M223 516 c-50 -16 -100 -50 -108 -74 -3 -11 -26 -25 -60 -36 -40 -12
-55 -22 -55 -35 0 -23 17 -37 53 -46 15 -4 30 -11 32 -16 3 -5 -13 -2 -36 6
-23 9 -44 13 -47 11 -8 -9 30 -147 45 -161 20 -21 75 -34 187 -47 110 -12 255
0 318 26 32 14 36 21 56 96 12 45 20 86 17 90 -3 5 -1 11 5 15 20 12 10 43
-17 54 -52 20 -113 30 -113 17 -1 -6 -7 4 -15 22 -8 17 -21 32 -30 32 -8 0
-15 5 -15 11 0 7 -10 9 -25 7 -13 -3 -22 -2 -20 2 8 13 -60 40 -97 39 -18 0
-52 -6 -75 -13z"/>
</g>
</svg>
